<?xml version="1.0" standalone="no"?>
<svg xmlns:xlink="http://www.w3.org/1999/xlink" id="wave" style="transform:rotate(0deg); transition: 0.3s" viewBox="0 0 1440 140" version="1.1" xmlns="http://www.w3.org/2000/svg"><defs><linearGradient id="sw-gradient-0" x1="0" x2="0" y1="1" y2="0"><stop stop-color="rgba(237.213, 0, 0, 1)" offset="0%"/><stop stop-color="rgba(255, 0, 0, 1)" offset="100%"/></linearGradient></defs><path style="transform:translate(0, 0px); opacity:1" fill="url(#sw-gradient-0)" d="M0,0L288,14L576,98L864,14L1152,56L1440,70L1728,126L2016,98L2304,112L2592,70L2880,42L3168,70L3456,42L3744,98L4032,112L4320,0L4608,0L4896,0L5184,126L5472,42L5760,112L6048,84L6336,70L6624,14L6912,112L6912,140L6624,140L6336,140L6048,140L5760,140L5472,140L5184,140L4896,140L4608,140L4320,140L4032,140L3744,140L3456,140L3168,140L2880,140L2592,140L2304,140L2016,140L1728,140L1440,140L1152,140L864,140L576,140L288,140L0,140Z"/><defs><linearGradient id="sw-gradient-1" x1="0" x2="0" y1="1" y2="0"><stop stop-color="rgba(255, 0, 0, 1)" offset="0%"/><stop stop-color="rgba(255, 61.995, 61.995, 1)" offset="100%"/></linearGradient></defs><path style="transform:translate(0, 50px); opacity:0.9" fill="url(#sw-gradient-1)" d="M0,56L288,0L576,112L864,42L1152,28L1440,84L1728,56L2016,84L2304,126L2592,14L2880,70L3168,56L3456,28L3744,56L4032,28L4320,112L4608,84L4896,70L5184,112L5472,56L5760,112L6048,28L6336,126L6624,98L6912,112L6912,140L6624,140L6336,140L6048,140L5760,140L5472,140L5184,140L4896,140L4608,140L4320,140L4032,140L3744,140L3456,140L3168,140L2880,140L2592,140L2304,140L2016,140L1728,140L1440,140L1152,140L864,140L576,140L288,140L0,140Z"/></svg>