<?xml version="1.0" standalone="no"?>
<svg xmlns:xlink="http://www.w3.org/1999/xlink" id="wave" style="transform:rotate(0deg); transition: 0.3s" viewBox="0 0 1440 140" version="1.1" xmlns="http://www.w3.org/2000/svg"><defs><linearGradient id="sw-gradient-0" x1="0" x2="0" y1="1" y2="0"><stop stop-color="rgba(255, 191.25, 0, 1)" offset="0%"/><stop stop-color="rgba(255, 193, 7, 1)" offset="100%"/></linearGradient></defs><path style="transform:translate(0, 0px); opacity:1" fill="url(#sw-gradient-0)" d="M0,42L288,70L576,56L864,98L1152,84L1440,56L1728,56L2016,98L2304,28L2592,112L2880,56L3168,14L3456,126L3744,98L4032,98L4320,0L4608,0L4896,98L5184,84L5472,70L5760,42L6048,84L6336,112L6624,42L6912,56L6912,140L6624,140L6336,140L6048,140L5760,140L5472,140L5184,140L4896,140L4608,140L4320,140L4032,140L3744,140L3456,140L3168,140L2880,140L2592,140L2304,140L2016,140L1728,140L1440,140L1152,140L864,140L576,140L288,140L0,140Z"/></svg>